<svg width="20" height="22" viewBox="0 0 20 22" fill="none" xmlns="http://www.w3.org/2000/svg">
<path d="M4.22021 13.1689V6.09863H19.0227L17.037 13.1689H4.22021Z" stroke="black" stroke-miterlimit="10" stroke-linecap="round" stroke-linejoin="round"/>
<path d="M16.1329 20.6007C17.296 20.6007 18.2389 19.6578 18.2389 18.4947C18.2389 17.3316 17.296 16.3887 16.1329 16.3887C14.9698 16.3887 14.0269 17.3316 14.0269 18.4947C14.0269 19.6578 14.9698 20.6007 16.1329 20.6007Z" stroke="black" stroke-miterlimit="10" stroke-linecap="round" stroke-linejoin="round"/>
<path d="M6.14412 20.6007C7.30726 20.6007 8.25016 19.6578 8.25016 18.4947C8.25016 17.3316 7.30726 16.3887 6.14412 16.3887C4.98099 16.3887 4.03809 17.3316 4.03809 18.4947C4.03809 19.6578 4.98099 20.6007 6.14412 20.6007Z" stroke="black" stroke-miterlimit="10" stroke-linecap="round" stroke-linejoin="round"/>
<path d="M4.24932 11.5143V3.96265L4.64044 1.25488H1" stroke="black" stroke-miterlimit="10" stroke-linecap="round" stroke-linejoin="round"/>
</svg>
