<svg width="33" height="34" viewBox="0 0 33 34" fill="none" xmlns="http://www.w3.org/2000/svg">
<g filter="url(#filter0_d)">
<path d="M8.99414 15.7802V7.00879H27.3581L24.8946 15.7802H8.99414Z" stroke="black" stroke-width="2" stroke-miterlimit="10" stroke-linecap="round" stroke-linejoin="round"/>
<path d="M23.7749 24.9999C25.2178 24.9999 26.3876 23.8302 26.3876 22.3872C26.3876 20.9442 25.2178 19.7744 23.7749 19.7744C22.3319 19.7744 21.1621 20.9442 21.1621 22.3872C21.1621 23.8302 22.3319 24.9999 23.7749 24.9999Z" stroke="black" stroke-width="2" stroke-miterlimit="10" stroke-linecap="round" stroke-linejoin="round"/>
<path d="M11.3823 24.9999C12.8253 24.9999 13.995 23.8302 13.995 22.3872C13.995 20.9442 12.8253 19.7744 11.3823 19.7744C9.9393 19.7744 8.76953 20.9442 8.76953 22.3872C8.76953 23.8302 9.9393 24.9999 11.3823 24.9999Z" stroke="black" stroke-width="2" stroke-miterlimit="10" stroke-linecap="round" stroke-linejoin="round"/>
<path d="M9.03111 13.7278V4.35925L9.51633 1H5" stroke="black" stroke-width="2" stroke-miterlimit="10" stroke-linecap="round" stroke-linejoin="round"/>
</g>
<defs>
<filter id="filter0_d" x="0" y="0" width="32.3581" height="33.9999" filterUnits="userSpaceOnUse" color-interpolation-filters="sRGB">
<feFlood flood-opacity="0" result="BackgroundImageFix"/>
<feColorMatrix in="SourceAlpha" type="matrix" values="0 0 0 0 0 0 0 0 0 0 0 0 0 0 0 0 0 0 127 0"/>
<feOffset dy="4"/>
<feGaussianBlur stdDeviation="2"/>
<feColorMatrix type="matrix" values="0 0 0 0 0 0 0 0 0 0 0 0 0 0 0 0 0 0 0.1 0"/>
<feBlend mode="normal" in2="BackgroundImageFix" result="effect1_dropShadow"/>
<feBlend mode="normal" in="SourceGraphic" in2="effect1_dropShadow" result="shape"/>
</filter>
</defs>
</svg>
