<svg width="40" height="40" viewBox="0 0 40 40" fill="none" xmlns="http://www.w3.org/2000/svg">
<path d="M25.9613 10.6418H14.0394C12.1365 10.6418 10.5884 12.19 10.5884 14.0929V26.0147C10.5884 27.9176 12.1365 29.4662 14.0394 29.4662H25.9613C27.8642 29.4662 29.4128 27.9181 29.4128 26.0147V14.0929C29.4128 12.19 27.8646 10.6418 25.9613 10.6418ZM20.0004 26.2509C16.5836 26.2509 13.8037 23.471 13.8037 20.0538C13.8037 16.6371 16.5836 13.8572 20.0004 13.8572C23.4175 13.8572 26.1975 16.6371 26.1975 20.0538C26.1975 23.4706 23.4171 26.2509 20.0004 26.2509ZM26.3967 15.1384C25.5878 15.1384 24.9301 14.4806 24.9301 13.6722C24.9301 12.8638 25.5878 12.2061 26.3967 12.2061C27.2051 12.2061 27.8628 12.8638 27.8628 13.6722C27.8628 14.4806 27.2051 15.1384 26.3967 15.1384Z" fill="white"/>
<path d="M20.0004 16.4758C18.028 16.4758 16.4219 18.081 16.4219 20.0534C16.4219 22.0268 18.028 23.6324 20.0004 23.6324C21.9737 23.6324 23.5785 22.0268 23.5785 20.0534C23.5785 18.0815 21.9732 16.4758 20.0004 16.4758Z" fill="white"/>
<path d="M20 0C8.95475 0 0 8.95475 0 20C0 31.0453 8.95475 40 20 40C31.0453 40 40 31.0453 40 20C40 8.95475 31.0453 0 20 0ZM32.0306 26.0148C32.0306 29.3621 29.3081 32.0845 25.9609 32.0845H14.0391C10.6923 32.0845 7.96943 29.3621 7.96943 26.0148V14.093C7.96943 10.7462 10.6923 8.02335 14.0391 8.02335H25.9609C29.3081 8.02335 32.0306 10.7462 32.0306 14.093V26.0148Z" fill="white"/>
</svg>
