<svg width="38" height="38" viewBox="0 0 38 38" fill="none" xmlns="http://www.w3.org/2000/svg">
<g clip-path="url(#clip0)">
<rect x="6.14819" y="6.14941" width="24.5938" height="24.5938" rx="3" fill="black"/>
<path d="M24.3016 9.96289H13.142C11.3608 9.96289 9.91162 11.4121 9.91162 13.1933V24.3529C9.91162 26.1341 11.3608 27.5837 13.142 27.5837H24.3016C26.0828 27.5837 27.5324 26.1345 27.5324 24.3529V13.1933C27.5324 11.4121 26.0832 9.96289 24.3016 9.96289ZM18.7218 24.5739C15.5235 24.5739 12.9214 21.9718 12.9214 18.7731C12.9214 15.5748 15.5235 12.9726 18.7218 12.9726C21.9205 12.9726 24.5227 15.5748 24.5227 18.7731C24.5227 21.9714 21.9201 24.5739 18.7218 24.5739ZM24.7091 14.1719C23.952 14.1719 23.3363 13.5562 23.3363 12.7995C23.3363 12.0428 23.952 11.4271 24.7091 11.4271C25.4659 11.4271 26.0816 12.0428 26.0816 12.7995C26.0816 13.5562 25.4659 14.1719 24.7091 14.1719Z" fill="white"/>
<path d="M18.7216 15.4238C16.8753 15.4238 15.3719 16.9264 15.3719 18.7727C15.3719 20.6198 16.8753 22.1228 18.7216 22.1228C20.5687 22.1228 22.0709 20.6198 22.0709 18.7727C22.0709 16.9268 20.5683 15.4238 18.7216 15.4238Z" fill="white"/>
<path d="M18.7212 0.000976562C8.38219 0.000976562 0 8.38317 0 18.7222C0 29.0612 8.38219 37.4434 18.7212 37.4434C29.0603 37.4434 37.4425 29.0612 37.4425 18.7222C37.4425 8.38317 29.0603 0.000976562 18.7212 0.000976562ZM29.9826 24.3525C29.9826 27.4857 27.4342 30.034 24.301 30.034H13.1414C10.0087 30.034 7.45987 27.4857 7.45987 24.3525V13.1929C7.45987 10.0601 10.0087 7.51132 13.1414 7.51132H24.301C27.4342 7.51132 29.9826 10.0601 29.9826 13.1929V24.3525Z" fill="white"/>
</g>
<defs>
<clipPath id="clip0">
<rect width="37.4425" height="37.4425" fill="white" transform="translate(0 0.000976562)"/>
</clipPath>
</defs>
</svg>
