<svg width="64" height="64" viewBox="0 0 64 64" fill="none" xmlns="http://www.w3.org/2000/svg">
<path d="M7.28719 17.732L32 3.4641L56.7128 17.732V46.2679L32 60.5359L7.28719 46.2679V17.732Z" fill="black" stroke="white" stroke-width="6"/>
<path d="M21.4813 38V28.118L19.2853 28.658L18.7093 26.39L22.3273 25.31H24.2173V38H21.4813ZM31.5411 38.18C30.1251 38.18 28.9611 37.844 28.0491 37.172C27.1371 36.5 26.6811 35.612 26.6811 34.508C26.6811 33.104 27.3591 32.09 28.7151 31.466C27.6471 30.818 27.1131 29.888 27.1131 28.676C27.1131 27.692 27.5211 26.87 28.3371 26.21C29.1651 25.55 30.2331 25.22 31.5411 25.22C32.8611 25.22 33.9291 25.55 34.7451 26.21C35.5611 26.87 35.9691 27.704 35.9691 28.712C35.9691 29.9 35.4351 30.818 34.3671 31.466C35.0511 31.826 35.5611 32.234 35.8971 32.69C36.2331 33.146 36.4011 33.74 36.4011 34.472C36.4011 35.612 35.9451 36.518 35.0331 37.19C34.1331 37.85 32.9691 38.18 31.5411 38.18ZM30.2271 30.116C30.5631 30.404 31.0011 30.548 31.5411 30.548C32.0811 30.548 32.5131 30.404 32.8371 30.116C33.1731 29.828 33.3411 29.45 33.3411 28.982C33.3411 28.574 33.1731 28.226 32.8371 27.938C32.5131 27.65 32.0811 27.506 31.5411 27.506C30.9891 27.506 30.5511 27.65 30.2271 27.938C29.9031 28.226 29.7411 28.58 29.7411 29C29.7411 29.444 29.9031 29.816 30.2271 30.116ZM31.5411 35.894C32.2131 35.894 32.7411 35.744 33.1251 35.444C33.5211 35.144 33.7191 34.76 33.7191 34.292C33.7191 33.812 33.5151 33.434 33.1071 33.158C32.7111 32.882 32.1891 32.744 31.5411 32.744C30.8931 32.744 30.3651 32.888 29.9571 33.176C29.5611 33.452 29.3631 33.836 29.3631 34.328C29.3631 34.772 29.5611 35.144 29.9571 35.444C30.3531 35.744 30.8811 35.894 31.5411 35.894ZM41.691 36.146V32.906H38.433V30.422H41.691V27.182H44.247V30.422H47.505V32.906H44.247V36.146H41.691Z" fill="white"/>
</svg>
