<svg width="60" height="40" viewBox="0 0 60 40" fill="none" xmlns="http://www.w3.org/2000/svg">
<path d="M33.4312 14.1357H26.5725V25.8616H33.4312V14.1357Z" fill="#FF5F00"/>
<path d="M27.2784 19.9998C27.2776 18.8707 27.5221 17.7562 27.9935 16.7406C28.4649 15.725 29.1508 14.835 29.9993 14.1379C28.9484 13.2733 27.6863 12.7357 26.3573 12.5865C25.0282 12.4373 23.6859 12.6824 22.4837 13.294C21.2815 13.9055 20.2679 14.8588 19.5588 16.0448C18.8497 17.2308 18.4736 18.6017 18.4736 20.0008C18.4736 21.3999 18.8497 22.7708 19.5588 23.9568C20.2679 25.1428 21.2815 26.0961 22.4837 26.7076C23.6859 27.3192 25.0282 27.5643 26.3573 27.4151C27.6863 27.2659 28.9484 26.7283 29.9993 25.8637C29.1505 25.1664 28.4645 24.276 27.9931 23.2601C27.5217 22.2441 27.2773 21.1292 27.2784 19.9998Z" fill="#EB001B"/>
<path d="M40.845 24.621V24.3808H40.944V24.3311H40.7085V24.3808H40.8015V24.621H40.845ZM41.3021 24.621V24.3311H41.2309L41.1478 24.5382L41.0647 24.3311H40.9934V24.621H41.0449V24.4015L41.1221 24.59H41.1755L41.2527 24.4015V24.621H41.3021Z" fill="#F79E1B"/>
<path d="M41.5257 19.9998C41.5256 21.399 41.1495 22.77 40.4402 23.956C39.731 25.1421 38.7172 26.0953 37.5149 26.7068C36.3125 27.3182 34.9701 27.5632 33.641 27.4138C32.3119 27.2643 31.0498 26.7265 29.9989 25.8617C30.8471 25.1639 31.5328 24.2737 32.0043 23.258C32.4759 22.2424 32.7209 21.1279 32.7209 19.9987C32.7209 18.8695 32.4759 17.7551 32.0043 16.7394C31.5328 15.7238 30.8471 14.8335 29.9989 14.1358C31.0498 13.271 32.3119 12.7331 33.641 12.5837C34.9701 12.4342 36.3125 12.6792 37.5149 13.2907C38.7172 13.9022 39.731 14.8554 40.4402 16.0414C41.1495 17.2275 41.5256 18.5985 41.5257 19.9977V19.9998Z" fill="#F79E1B"/>
<rect x="0.5" y="0.5" width="59" height="39" rx="4.5" stroke="#EB001B"/>
</svg>
