<svg width="29" height="19" viewBox="0 0 29 19" fill="none" xmlns="http://www.w3.org/2000/svg">
<path d="M18.3258 3.31018H10.6758V15.6875H18.3258V3.31018Z" fill="#FF5F00"/>
<path d="M11.4633 9.50003C11.4624 8.30821 11.7351 7.13178 12.2609 6.05978C12.7867 4.98779 13.5517 4.04832 14.4982 3.31246C13.326 2.3999 11.9182 1.83243 10.4359 1.67491C8.9535 1.51739 7.45629 1.77618 6.11537 2.4217C4.77445 3.06721 3.64391 4.07342 2.85297 5.32531C2.06202 6.5772 1.64258 8.02427 1.64258 9.50113C1.64258 10.978 2.06202 12.4251 2.85297 13.6769C3.64391 14.9288 4.77445 15.935 6.11537 16.5806C7.45629 17.2261 8.9535 17.4849 10.4359 17.3273C11.9182 17.1698 13.326 16.6024 14.4982 15.6898C13.5514 14.9537 12.7862 14.0139 12.2604 12.9415C11.7346 11.8691 11.462 10.6922 11.4633 9.50003Z" fill="#EB001B"/>
<path d="M26.5957 14.3779V14.1243H26.706V14.0718H26.4434V14.1243H26.5471V14.3779H26.5957ZM27.1055 14.3779V14.0718H27.0261L26.9334 14.2904L26.8407 14.0718H26.7612V14.3779H26.8186V14.1461L26.9047 14.3451H26.9643L27.0503 14.1461V14.3779H27.1055Z" fill="#F79E1B"/>
<path d="M27.3568 9.50008C27.3567 10.977 26.9372 12.4242 26.1461 13.6761C25.355 14.9281 24.2243 15.9343 22.8832 16.5797C21.5421 17.2251 20.0448 17.4837 18.5623 17.326C17.0799 17.1682 15.6721 16.6005 14.5 15.6876C15.4461 14.9511 16.2109 14.0114 16.7368 12.9394C17.2628 11.8673 17.536 10.6909 17.536 9.49898C17.536 8.30704 17.2628 7.13067 16.7368 6.05861C16.2109 4.98656 15.4461 4.04683 14.5 3.31032C15.6721 2.39747 17.0799 1.82972 18.5623 1.67198C20.0448 1.51423 21.5421 1.77286 22.8832 2.41828C24.2243 3.06371 25.355 4.06989 26.1461 5.32183C26.9372 6.57376 27.3567 8.02092 27.3568 9.49789V9.50008Z" fill="#F79E1B"/>
<style>
    svg:not(:hover) path{
        fill: rgb(109, 109,	109);
    }
    svg path{
        transition: all .5s;
        cursor:pointer;
    }
</style>
</svg>
