<svg width="60" height="40" viewBox="0 0 60 40" fill="none" xmlns="http://www.w3.org/2000/svg">
<g clip-path="url(#clip0)">
<path fill-rule="evenodd" clip-rule="evenodd" d="M36.4746 19.1631V23.0007H38.8022V20.7265H41.4401C42.5504 20.719 43.4935 20.0694 43.8491 19.1631H36.4746Z" fill="#4DB45E"/>
<path fill-rule="evenodd" clip-rule="evenodd" d="M36.1636 16C36.2992 17.5686 37.9193 18.8071 39.8979 18.8071C39.9044 18.8071 43.9451 18.8071 43.9451 18.8071C43.975 18.6632 43.9906 18.5148 43.9906 18.3629C43.9906 17.0636 42.8461 16.0096 41.4303 16.0001L36.1636 16Z" fill="url(#paint0_linear)"/>
<path fill-rule="evenodd" clip-rule="evenodd" d="M32.7184 18.7698L32.7202 18.7662L32.7205 18.7663C32.7443 18.727 32.79 18.7005 32.8425 18.7005C32.9184 18.7005 32.9801 18.7559 32.9821 18.8249L32.9822 18.8249V22.9645H35.3098V16H32.9822C32.687 16.009 32.3535 16.2074 32.2296 16.4509L30.3772 20.0894C30.3727 20.1043 30.3655 20.1181 30.3563 20.1306L30.3556 20.1318L30.3554 20.1318C30.3274 20.1687 30.2807 20.1929 30.2279 20.1929C30.1422 20.1929 30.0727 20.1293 30.0727 20.0508V16H27.7451V22.9645H30.0727V22.9637C30.3646 22.9497 30.6903 22.7535 30.8125 22.5135L32.7136 18.7792C32.7151 18.776 32.7167 18.7728 32.7184 18.7698Z" fill="#4DB45E"/>
<path fill-rule="evenodd" clip-rule="evenodd" d="M24.0275 18.8888L22.6671 22.9645H20.9927L19.6315 18.8864C19.6184 18.821 19.5559 18.7716 19.4808 18.7716C19.3962 18.7716 19.3276 18.8344 19.3276 18.9119C19.3276 18.9125 19.3276 18.9131 19.3276 18.9137L19.3276 22.9645H17V16H18.9978H19.5928C20.0211 16 20.4699 16.3044 20.5951 16.6794L21.7279 20.0732C21.7842 20.242 21.8757 20.2418 21.932 20.0732L23.0647 16.6794C23.19 16.3042 23.6387 16 24.067 16H24.6618H26.6595V22.9645H24.3319V18.9137C24.3319 18.9131 24.3319 18.9125 24.3319 18.9119C24.3319 18.8344 24.2633 18.7716 24.1787 18.7716C24.1026 18.7716 24.0395 18.8223 24.0275 18.8888Z" fill="#4DB45E"/>
</g>
<rect x="0.5" y="0.5" width="59" height="39" rx="4.5" stroke="#4DB45E"/>
<defs>
<linearGradient id="paint0_linear" x1="36.3499" y1="18.625" x2="44.4499" y2="18.625" gradientUnits="userSpaceOnUse">
<stop stop-color="#00B4E6"/>
<stop offset="1" stop-color="#0693D0"/>
</linearGradient>
<clipPath id="clip0">
<rect width="27" height="7" fill="white" transform="translate(17 16)"/>
</clipPath>
</defs>
</svg>
