<svg width="38" height="38" viewBox="0 0 38 38" fill="none" xmlns="http://www.w3.org/2000/svg">
<g clip-path="url(#clip0)">
<path d="M18.806 37.4421C29.1454 37.4421 37.5271 29.0604 37.5271 18.7211C37.5271 8.3817 29.1454 0 18.806 0C8.46666 0 0.0849609 8.3817 0.0849609 18.7211C0.0849609 29.0604 8.46666 37.4421 18.806 37.4421Z" fill="white"/>
<path d="M30.2715 13.4539C29.4693 13.8097 28.6063 14.0503 27.7012 14.1577C28.6253 13.6041 29.3344 12.7281 29.6692 11.6825C28.8045 12.1954 27.8464 12.5675 26.8275 12.7681C26.0112 11.8988 24.8482 11.3555 23.5604 11.3555C21.0895 11.3555 19.0855 13.3595 19.0855 15.8303C19.0855 16.1811 19.1252 16.5225 19.202 16.8502C15.483 16.6636 12.1855 14.8822 9.9783 12.1741C9.59319 12.8349 9.37226 13.6041 9.37226 14.424C9.37226 15.9762 10.1628 17.3464 11.3629 18.1487C10.6297 18.1257 9.93925 17.9244 9.33622 17.5884C9.33589 17.6074 9.33589 17.6264 9.33589 17.6451C9.33589 19.8133 10.879 21.6217 12.9257 22.0325C12.5506 22.1353 12.1545 22.1897 11.747 22.1897C11.458 22.1897 11.178 22.162 10.905 22.1099C11.4744 23.8873 13.1266 25.1812 15.0852 25.2176C13.5534 26.4179 11.6242 27.1331 9.52711 27.1331C9.16669 27.1331 8.80961 27.1121 8.46021 27.0704C10.4395 28.3405 12.7922 29.081 15.3192 29.081C23.55 29.081 28.0513 22.2625 28.0513 16.3486C28.0513 16.1547 28.0469 15.9615 28.0383 15.7699C28.9133 15.1392 29.6718 14.3513 30.2715 13.4539Z" fill="black"/>
</g>
<defs>
<clipPath id="clip0">
<rect width="37.4425" height="37.4425" fill="white" transform="translate(0.0839844)"/>
</clipPath>
</defs>
</svg>
