<svg width="60" height="40" viewBox="0 0 60 40" fill="none" xmlns="http://www.w3.org/2000/svg">
<rect x="0.5" y="0.5" width="59" height="39" rx="4.5" stroke="#045EBB"/>
<g clip-path="url(#clip0)">
<path d="M27.811 15.4824L26.4388 23.5349H28.6334L30.0067 15.4824H27.811Z" fill="#045EBB"/>
<path d="M24.5985 15.491L22.4491 20.9825L22.2199 20.1533C21.796 19.1542 20.5926 17.7194 19.1798 16.8152L21.1452 23.5304L23.4674 23.5265L26.9235 15.4893L24.5985 15.491Z" fill="#045EBB"/>
<path d="M21.3869 16.0673C21.2594 15.5768 20.8896 15.4306 20.4307 15.4131H17.0282L17 15.5734C19.6478 16.2157 21.3999 17.7635 22.1269 19.6245L21.3869 16.0673Z" fill="#045EBB"/>
<path d="M34.4546 17.0258C35.1726 17.0145 35.693 17.1714 36.0972 17.334L36.2953 17.4271L36.5922 15.6819C36.1576 15.5187 35.4763 15.3438 34.6262 15.3438C32.4576 15.3438 30.929 16.436 30.9172 18.0012C30.9031 19.1577 32.006 19.8035 32.8391 20.189C33.6943 20.5841 33.981 20.8353 33.9771 21.1881C33.9703 21.7271 33.2952 21.9744 32.6647 21.9744C31.7859 21.9744 31.3191 21.853 30.5983 21.5527L30.3155 21.424L30.0067 23.2263C30.5204 23.4515 31.4681 23.6451 32.4519 23.6553C34.7588 23.6553 36.258 22.5761 36.2738 20.9036C36.2834 19.9886 35.6981 19.2904 34.4298 18.7175C33.6621 18.3438 33.1925 18.0955 33.197 17.7184C33.197 17.3837 33.5955 17.0258 34.4546 17.0258Z" fill="#045EBB"/>
<path d="M42.2246 15.4912H40.529C40.0023 15.4912 39.6106 15.6346 39.3792 16.1595L36.1206 23.5392H38.4253C38.4253 23.5392 38.8012 22.5469 38.8864 22.3295C39.1387 22.3295 41.3779 22.3329 41.6968 22.3329C41.7623 22.614 41.9644 23.5392 41.9644 23.5392H44.0004L42.2246 15.4912ZM39.518 20.6813C39.6987 20.2191 40.3924 18.4309 40.3924 18.4309C40.3805 18.4529 40.5713 17.9652 40.6848 17.6621L40.8326 18.3564C40.8326 18.3564 41.2532 20.2789 41.3412 20.6813H39.518Z" fill="#045EBB"/>
</g>
<defs>
<clipPath id="clip0">
<rect width="27" height="27" fill="white" transform="translate(17 6)"/>
</clipPath>
</defs>
</svg>
