<svg width="38" height="38" viewBox="0 0 38 38" fill="none" xmlns="http://www.w3.org/2000/svg">
<g clip-path="url(#clip0)">
<path d="M18.7212 37.4434C29.0607 37.4434 37.4425 29.0616 37.4425 18.7222C37.4425 8.38275 29.0607 0.000976562 18.7212 0.000976562C8.38178 0.000976562 0 8.38275 0 18.7222C0 29.0616 8.38178 37.4434 18.7212 37.4434Z" fill="white"/>
<path fill-rule="evenodd" clip-rule="evenodd" d="M18.0137 26.933H19.4831C19.4831 26.933 19.927 26.8842 20.1536 26.6399C20.3621 26.4157 20.3555 25.9945 20.3555 25.9945C20.3555 25.9945 20.3268 24.0229 21.2418 23.7325C22.1439 23.4465 23.3022 25.6381 24.53 26.4808C25.4584 27.1185 26.1639 26.9787 26.1639 26.9787L29.4468 26.933C29.4468 26.933 31.1641 26.8272 30.3498 25.4769C30.2831 25.3665 29.8756 24.4781 27.909 22.6526C25.8506 20.742 26.1262 21.0511 28.6058 17.7462C30.1159 15.7335 30.7196 14.5048 30.531 13.9785C30.3512 13.4772 29.2405 13.6097 29.2405 13.6097L25.5442 13.6327C25.5442 13.6327 25.2702 13.5954 25.067 13.7168C24.8684 13.836 24.7406 14.1136 24.7406 14.1136C24.7406 14.1136 24.1556 15.6711 23.3753 16.9957C21.7294 19.7906 21.0713 19.9381 20.8023 19.7646C20.1766 19.3601 20.3328 18.1397 20.3328 17.2727C20.3328 14.5642 20.7436 13.4348 19.5328 13.1425C19.131 13.0454 18.8354 12.9813 17.8078 12.971C16.4889 12.9573 15.3726 12.975 14.7406 13.2847C14.3201 13.4906 13.9957 13.9494 14.1933 13.9758C14.4375 14.0085 14.9909 14.125 15.2842 14.5244C15.663 15.0397 15.6496 16.1971 15.6496 16.1971C15.6496 16.1971 15.8672 19.3855 15.1414 19.7816C14.6431 20.0532 13.9597 19.4986 12.4923 16.963C11.7404 15.6641 11.1727 14.2284 11.1727 14.2284C11.1727 14.2284 11.0633 13.9601 10.868 13.8166C10.6311 13.6427 10.3 13.5873 10.3 13.5873L6.7876 13.6104C6.7876 13.6104 6.26032 13.6251 6.06676 13.8543C5.89456 14.0582 6.05308 14.4801 6.05308 14.4801C6.05308 14.4801 8.80296 20.9136 11.9166 24.1557C14.7716 27.1282 18.0137 26.933 18.0137 26.933Z" fill="black"/>
</g>
<defs>
<clipPath id="clip0">
<rect width="37.4425" height="37.4425" fill="white" transform="translate(0 0.000976562)"/>
</clipPath>
</defs>
</svg>
